<?xml version="1.0" encoding="utf-8"?><!-- Uploaded to: SVG Repo, www.svgrepo.com, Generator: SVG Repo Mixer Tools -->
<svg fill="#000000" width="800px" height="800px" viewBox="0 0 24 24" id="video" data-name="Flat Color" xmlns="http://www.w3.org/2000/svg" class="icon flat-color"><path id="secondary" d="M21.05,7.3a2,2,0,0,0-1.94-.09L16.55,8.49a1,1,0,0,0-.55.89v5.24a1,1,0,0,0,.55.89l2.56,1.28A2,2,0,0,0,20,17a2,2,0,0,0,2-2V9A2,2,0,0,0,21.05,7.3Z" style="fill: rgb(44, 169, 188);"></path><rect id="primary" x="2" y="5" width="16" height="14" rx="2" style="fill: rgb(0, 0, 0);"></rect><path id="secondary-2" data-name="secondary" d="M9,14.5a1,1,0,0,1-.45-.11A1,1,0,0,1,8,13.5v-3a1,1,0,0,1,1.6-.8l2,1.5a1,1,0,0,1,0,1.6l-2,1.5A1,1,0,0,1,9,14.5Z" style="fill: rgb(44, 169, 188);"></path></svg>